<svg width="28" height="28" viewBox="0 0 28 28" fill="none" xmlns="http://www.w3.org/2000/svg">
<rect x="0.5" y="0.5" width="27" height="27" rx="5.5" stroke="#F0F0F0"/>
<path fill-rule="evenodd" clip-rule="evenodd" d="M6.5 10.2502C6.5 8.05262 6.52342 7.32031 9.41667 7.32031C12.3099 7.32031 12.3333 8.05262 12.3333 10.2502C12.3333 12.4479 12.3426 13.1802 9.41667 13.1802C6.49077 13.1802 6.5 12.4479 6.5 10.2502Z" stroke="#BFBFBF" stroke-width="1.5" stroke-linecap="round" stroke-linejoin="round"/>
<path fill-rule="evenodd" clip-rule="evenodd" d="M15.666 10.2502C15.666 8.05262 15.6894 7.32031 18.5827 7.32031C21.4759 7.32031 21.4993 8.05262 21.4993 10.2502C21.4993 12.4479 21.5086 13.1802 18.5827 13.1802C15.6568 13.1802 15.666 12.4479 15.666 10.2502Z" stroke="#BFBFBF" stroke-width="1.5" stroke-linecap="round" stroke-linejoin="round"/>
<path fill-rule="evenodd" clip-rule="evenodd" d="M6.5 19.4592C6.5 17.2616 6.52342 16.5293 9.41667 16.5293C12.3099 16.5293 12.3333 17.2616 12.3333 19.4592C12.3333 21.6569 12.3426 22.3892 9.41667 22.3892C6.49077 22.3892 6.5 21.6569 6.5 19.4592Z" stroke="#BFBFBF" stroke-width="1.5" stroke-linecap="round" stroke-linejoin="round"/>
<path fill-rule="evenodd" clip-rule="evenodd" d="M15.666 19.4592C15.666 17.2616 15.6894 16.5293 18.5827 16.5293C21.4759 16.5293 21.4993 17.2616 21.4993 19.4592C21.4993 21.6569 21.5086 22.3892 18.5827 22.3892C15.6568 22.3892 15.666 21.6569 15.666 19.4592Z" stroke="#BFBFBF" stroke-width="1.5" stroke-linecap="round" stroke-linejoin="round"/>
</svg>
